<svg width="496.3400146484375px" height="99.2199951171875px" xmlns="http://www.w3.org/2000/svg" viewBox="1.8299926757812557 25.390002441406253 496.3400146484375 99.2199951171875" style="background: rgba(0, 0, 0, 0);" preserveAspectRatio="xMidYMid"><defs><linearGradient id="editing-shiny-gradient" x1="0.04322727117869957" x2="0.9567727288213004" y1="0.2966316784620999" y2="0.7033683215379001" gradientUnits="objectBoundingBox"><stop offset="0.0" stop-color="#1f9c6d"></stop><stop offset="0.5" stop-color="#00ff42"></stop><stop offset="1.0" stop-color="#1fa99e"></stop></linearGradient><linearGradient id="editing-shiny-gradient2" x1="0" x2="0" y1="0" y2="1"><stop offset="0.2" stop-color="#fff" stop-opacity="0.8"></stop><stop offset="0.8" stop-color="#fff" stop-opacity="0"></stop></linearGradient><filter id="editing-shiny2" x="-100%" y="-100%" width="300%" height="300%"><feMorphology operator="erode" radius="2"></feMorphology></filter><filter id="editing-shiny" x="-100%" y="-100%" width="300%" height="300%"><feFlood flood-color="#fff" result="flood"></feFlood><feConvolveMatrix in="SourceGraphic" result="conv" order="8,8" divisor="1" kernelMatrix="0 0 0 0 0 0 0 0 0 0 0 1 1 0 0 0 0 0 0 1 1 0 0 0 0 0 1 0 0 1 0 0 0 0 1 0 0 1 0 0 0 1 0 0 0 0 1 0 0 1 1 0 0 1 1 0 0 0 0 1 1 0 0 0 "></feConvolveMatrix><feOffset dx="0" dy="4" in="conv" result="offset"></feOffset><feComposite operator="in" in="flood" in2="offset" result="comp"></feComposite><feGaussianBlur in="offset" stdDeviation="3" result="shadow"></feGaussianBlur><feColorMatrix in="shadow" type="matrix" values="0.7 0 0 0 0  0 0.7 0 0 0  0 0 0.7 0 0  0 0 0 0.3 0" result="dark-shadow"></feColorMatrix><feOffset dx="0" dy="4" in="dark-shadow" result="offset-shadow"></feOffset><feOffset dx="0" dy="2" in="conv" result="offset-2"></feOffset><feComposite operator="out" in="offset" in2="offset-2" result="edge-diff"></feComposite><feGaussianBlur in="edge-diff" stdDeviation="1" result="edge-blur"></feGaussianBlur><feColorMatrix in="edge-blur" result="edge-shadow" type="matrix" values="0 0 0 0 0  0 0 0 0 0  0 0 0 0 0  0 0 0 0.5 0"></feColorMatrix><feComposite operator="in" in="edge-shadow" in2="offset" result="edge-shadow-in"></feComposite><feOffset dx="0" dy="1" in="edge-shadow-in" result="edge-shadow-final"></feOffset><feMerge result="out"><feMergeNode in="offset-shadow"></feMergeNode><feMergeNode in="comp"></feMergeNode><feMergeNode in="edge-shadow-final"></feMergeNode><feMergeNode in="SourceGraphic"></feMergeNode></feMerge></filter></defs><g filter="url(#editing-shiny)"><g transform="translate(76.33436888456345, 92.54999923706055)"><path d="M23.60-26.50L23.60-26.50L23.60-26.50Q19.55-26.50 16.60-27.85L16.60-27.85L15-19.75L24.65-19.75L24.65-19.75Q24.65-17.10 23.33-15.43L23.33-15.43L23.33-15.43Q22-13.75 19.60-13.75L19.60-13.75L19.60-13.75Q17-13.75 14.60-14.70L14.60-14.70L14.60-14.70Q14.10-14.90 14.05-14.95L14.05-14.95L11.20 0L0.30 0L6.65-33L28.95-33L28.95-33Q28.95-29.95 27.53-28.23L27.53-28.23L27.53-28.23Q26.10-26.50 23.60-26.50ZM37.95 0L27.25 0L33.35-32.85L33.35-32.85Q38.30-33.40 45.53-33.40L45.53-33.40L45.53-33.40Q52.75-33.40 56.10-31.30L56.10-31.30L56.10-31.30Q59.45-29.20 59.45-24.98L59.45-24.98L59.45-24.98Q59.45-20.75 57.28-18.10L57.28-18.10L57.28-18.10Q55.10-15.45 51.35-14.60L51.35-14.60L51.35-14.60Q52.20-10.45 54.15-7.10L54.15-7.10L54.15-7.10Q55.95-3.95 58.05-2.95L58.05-2.95L58.05-2.95Q57.30-0.85 55.78 0.08L55.78 0.08L55.78 0.08Q54.25 1 52.08 1L52.08 1L52.08 1Q49.90 1 48.20-0.28L48.20-0.28L48.20-0.28Q46.50-1.55 45.15-3.90L45.15-3.90L45.15-3.90Q42.30-9 42-17.05L42-17.05L42.35-17.05L42.35-17.05Q46.05-17.15 47.90-19.07L47.90-19.07L47.90-19.07Q49.75-21 49.75-25.05L49.75-25.05L49.75-25.05Q49.75-30.10 45.50-30.30L45.50-30.30L44.40-30.30L44.40-30.30Q43.95-30.30 43.70-30.25L43.70-30.25L37.95 0ZM62.70-7.40L62.70-7.40L62.70-7.40Q62.70-9.35 63.20-11.85L63.20-11.85L67.25-33L78.30-33L74.30-11.70L74.30-11.70Q73.85-9.35 73.85-7.63L73.85-7.63L73.85-7.63Q73.85-5.90 74.58-5L74.58-5L74.58-5Q75.30-4.10 76.65-4.10L76.65-4.10L76.65-4.10Q78-4.10 78.85-4.45L78.85-4.45L78.85-4.45Q79.70-4.80 80.40-5.65L80.40-5.65L80.40-5.65Q81.75-7.35 82.60-11.70L82.60-11.70L86.65-33L94.20-33L90.20-11.75L90.20-11.75Q88.80-4.65 84.95-1.80L84.95-1.80L84.95-1.80Q81.20 1 73.80 1L73.80 1L73.80 1Q68.25 1 65.30-1.40L65.30-1.40L65.30-1.40Q62.70-3.50 62.70-7.40ZM96.45-31L96.45-31L96.45-31Q97.90-34 101.93-34L101.93-34L101.93-34Q105.95-34 107.83-31.68L107.83-31.68L107.83-31.68Q109.70-29.35 109.70-24L109.70-24L109.70-6.15L121.85-32.95L127.80-32.95L112.25 0L100.55 0L99.05-24L99.05-24Q98.90-26.65 98.18-28.45L98.18-28.45L98.18-28.45Q97.45-30.25 96.45-31ZM147.15-7.70L147.15-7.70L147.15-7.70Q148.10-6.50 148.10-4.55L148.10-4.55L148.10-4.55Q148.10-1.85 146.10-0.43L146.10-0.43L146.10-0.43Q144.10 1 140.95 1L140.95 1L140.95 1Q139.15 1 136.40 0.60L136.40 0.60L136.40 0.60Q131.00-0.25 129.35-0.25L129.35-0.25L129.35-0.25Q127.70-0.25 127.05-0.18L127.05-0.18L127.05-0.18Q126.40-0.10 125.35 0L125.35 0L131.50-33L153.05-33L153.05-33Q153.05-29.95 151.58-28.35L151.58-28.35L151.58-28.35Q150.10-26.75 147.20-26.75L147.20-26.75L147.20-26.75Q144.30-26.75 141.35-28.10L141.35-28.10L139.80-19.35L148.70-19.35L148.70-19.35Q148.70-16.70 147.40-15.23L147.40-15.23L147.40-15.23Q146.10-13.75 143.93-13.75L143.93-13.75L143.93-13.75Q141.75-13.75 140.40-14.25L140.40-14.25L140.40-14.25Q139.05-14.75 138.90-14.90L138.90-14.90L137.10-5.45L137.10-5.45Q138.30-5.30 140.55-5.30L140.55-5.30L140.55-5.30Q144.40-5.30 147.15-7.70ZM162.95 0L152.25 0L158.35-32.85L158.35-32.85Q163.30-33.40 170.53-33.40L170.53-33.40L170.53-33.40Q177.75-33.40 181.10-31.30L181.10-31.30L181.10-31.30Q184.45-29.20 184.45-24.98L184.45-24.98L184.45-24.98Q184.45-20.75 182.28-18.10L182.28-18.10L182.28-18.10Q180.10-15.45 176.35-14.60L176.35-14.60L176.35-14.60Q177.20-10.45 179.15-7.10L179.15-7.10L179.15-7.10Q180.95-3.95 183.05-2.95L183.05-2.95L183.05-2.95Q182.30-0.85 180.78 0.08L180.78 0.08L180.78 0.08Q179.25 1 177.08 1L177.08 1L177.08 1Q174.90 1 173.20-0.28L173.20-0.28L173.20-0.28Q171.50-1.55 170.15-3.90L170.15-3.90L170.15-3.90Q167.30-9 167.00-17.05L167.00-17.05L167.35-17.05L167.35-17.05Q171.05-17.15 172.90-19.07L172.90-19.07L172.90-19.07Q174.75-21 174.75-25.05L174.75-25.05L174.75-25.05Q174.75-30.10 170.50-30.30L170.50-30.30L169.40-30.30L169.40-30.30Q168.95-30.30 168.70-30.25L168.70-30.25L162.95 0ZM216.55-23.10L216.55-23.10L216.55-23.10Q217.30-24.60 217.30-26L217.30-26L217.30-26Q217.30-27.40 217.15-28.18L217.15-28.18L217.15-28.18Q217.00-28.95 216.65-29.55L216.65-29.55L216.65-29.55Q215.90-30.85 214.40-30.85L214.40-30.85L214.40-30.85Q212.55-30.85 211.05-29.50L211.05-29.50L211.05-29.50Q209.45-28.10 209.45-25.90L209.45-25.90L209.45-25.90Q209.45-24.50 210.43-23.43L210.43-23.43L210.43-23.43Q211.40-22.35 212.90-21.35L212.90-21.35L212.90-21.35Q214.40-20.35 216.10-19.35L216.10-19.35L216.10-19.35Q217.80-18.35 219.30-17.15L219.30-17.15L219.30-17.15Q222.75-14.40 222.75-10.70L222.75-10.70L222.75-10.70Q222.75-8.20 221.43-6.08L221.43-6.08L221.43-6.08Q220.10-3.95 217.90-2.40L217.90-2.40L217.90-2.40Q213.10 1 206.75 1L206.75 1L206.75 1Q201.60 1 198.95-0.68L198.95-0.68L198.95-0.68Q196.30-2.35 196.30-4.90L196.30-4.90L196.30-4.90Q196.30-9.45 199.85-10.60L199.85-10.60L199.85-10.60Q200.85-10.95 202.38-10.95L202.38-10.95L202.38-10.95Q203.90-10.95 205.65-10.30L205.65-10.30L205.65-10.30Q204.85-8.25 204.85-6.40L204.85-6.40L204.85-6.40Q204.85-2.40 207.70-2.40L207.70-2.40L207.70-2.40Q209.55-2.40 211.08-3.75L211.08-3.75L211.08-3.75Q212.60-5.10 212.60-6.63L212.60-6.63L212.60-6.63Q212.60-8.15 211.63-9.25L211.63-9.25L211.63-9.25Q210.65-10.35 209.20-11.23L209.20-11.23L209.20-11.23Q207.75-12.10 206.08-12.95L206.08-12.95L206.08-12.95Q204.40-13.80 202.95-15L202.95-15L202.95-15Q199.55-17.75 199.55-22.15L199.55-22.15L199.55-22.15Q199.55-25 200.95-27.23L200.95-27.23L200.95-27.23Q202.35-29.45 204.60-30.95L204.60-30.95L204.60-30.95Q209.10-34 214.63-34L214.63-34L214.63-34Q220.15-34 222.83-32.35L222.83-32.35L222.83-32.35Q225.50-30.70 225.50-27.90L225.50-27.90L225.50-27.90Q225.50-25.45 223.60-23.90L223.60-23.90L223.60-23.90Q221.95-22.60 219.95-22.60L219.95-22.60L219.95-22.60Q217.95-22.60 216.55-23.10ZM230.55-24.35L230.55-24.35L230.55-24.35Q228.85-25.65 228.85-28.43L228.85-28.43L228.85-28.43Q228.85-31.20 230.68-32.65L230.68-32.65L230.68-32.65Q232.50-34.10 235.65-34.10L235.65-34.10L235.65-34.10Q237.65-34.10 242.40-33.40L242.40-33.40L245.80-32.90L245.80-32.90Q247.50-32.70 249.28-32.70L249.28-32.70L249.28-32.70Q251.05-32.70 252.25-33.45L252.25-33.45L252.25-33.45Q254.05-31.85 254.05-29.55L254.05-29.55L254.05-29.55Q254.05-27.25 252.00-25.60L252.00-25.60L252.00-25.60Q249.90-23.85 247.20-23.85L247.20-23.85L247.20-23.85Q245.90-23.85 243.80-24.20L243.80-24.20L243.80-24.20Q241.35-16.50 241.35-11.15L241.35-11.15L241.35-11.15Q241.35-5.80 244.05-3L244.05-3L244.05-3Q242.80-0.75 240.95 0.13L240.95 0.13L240.95 0.13Q239.10 1 236.33 1L236.33 1L236.33 1Q233.55 1 231.83-0.53L231.83-0.53L231.83-0.53Q230.10-2.05 230.10-5.20L230.10-5.20L230.10-5.20Q230.10-8.85 232.10-14.85L232.10-14.85L232.10-14.85Q234.10-20.80 237.10-25.35L237.10-25.35L237.10-25.35Q235.65-25.50 234.15-25.50L234.15-25.50L234.15-25.50Q231.05-25.50 230.55-24.35ZM253.20-12.20L253.20-12.20L253.20-12.20Q253.20-21.65 258.10-27.60L258.10-27.60L258.10-27.60Q263.30-34.05 272.35-34.05L272.35-34.05L272.35-34.05Q278.90-34.05 282.20-30.88L282.20-30.88L282.20-30.88Q285.50-27.70 285.50-21L285.50-21L285.50-21Q285.50-10.80 280.30-4.85L280.30-4.85L280.30-4.85Q275.15 1 266.50 1L266.50 1L266.50 1Q259.75 1 256.48-2.38L256.48-2.38L256.48-2.38Q253.20-5.75 253.20-12.20ZM266.35-22.55L266.35-22.55L266.35-22.55Q264.10-13.55 264.10-6.45L264.10-6.45L264.10-6.45Q264.10-4.75 264.68-3.65L264.68-3.65L264.68-3.65Q265.25-2.55 266.78-2.55L266.78-2.55L266.78-2.55Q268.30-2.55 269.25-3.28L269.25-3.28L269.25-3.28Q270.20-4 270.95-5.65L270.95-5.65L270.95-5.65Q272.15-8.35 273.28-14.08L273.28-14.08L273.28-14.08Q274.40-19.80 274.50-22.18L274.50-22.18L274.50-22.18Q274.60-24.55 274.60-26.35L274.60-26.35L274.60-26.35Q274.60-28.15 274.05-29.30L274.05-29.30L274.05-29.30Q273.50-30.45 272.03-30.45L272.03-30.45L272.03-30.45Q270.55-30.45 269.55-29.55L269.55-29.55L269.55-29.55Q267.70-27.85 266.35-22.55ZM298.20 0L287.50 0L293.60-32.85L293.60-32.85Q298.55-33.40 305.78-33.40L305.78-33.40L305.78-33.40Q313-33.40 316.35-31.30L316.35-31.30L316.35-31.30Q319.70-29.20 319.70-24.98L319.70-24.98L319.70-24.98Q319.70-20.75 317.53-18.10L317.53-18.10L317.53-18.10Q315.35-15.45 311.60-14.60L311.60-14.60L311.60-14.60Q312.45-10.45 314.40-7.10L314.40-7.10L314.40-7.10Q316.20-3.95 318.30-2.95L318.30-2.95L318.30-2.95Q317.55-0.85 316.03 0.08L316.03 0.08L316.03 0.08Q314.50 1 312.33 1L312.33 1L312.33 1Q310.15 1 308.45-0.28L308.45-0.28L308.45-0.28Q306.75-1.55 305.40-3.90L305.40-3.90L305.40-3.90Q302.55-9 302.25-17.05L302.25-17.05L302.60-17.05L302.60-17.05Q306.30-17.15 308.15-19.07L308.15-19.07L308.15-19.07Q310-21 310-25.05L310-25.05L310-25.05Q310-30.10 305.75-30.30L305.75-30.30L304.65-30.30L304.65-30.30Q304.20-30.30 303.95-30.25L303.95-30.25L298.20 0ZM343.35-7.70L343.35-7.70L343.35-7.70Q344.30-6.50 344.30-4.55L344.30-4.55L344.30-4.55Q344.30-1.85 342.30-0.43L342.30-0.43L342.30-0.43Q340.30 1 337.15 1L337.15 1L337.15 1Q335.35 1 332.60 0.60L332.60 0.60L332.60 0.60Q327.20-0.25 325.55-0.25L325.55-0.25L325.55-0.25Q323.90-0.25 323.25-0.18L323.25-0.18L323.25-0.18Q322.60-0.10 321.55 0L321.55 0L327.70-33L349.25-33L349.25-33Q349.25-29.95 347.78-28.35L347.78-28.35L347.78-28.35Q346.30-26.75 343.40-26.75L343.40-26.75L343.40-26.75Q340.50-26.75 337.55-28.10L337.55-28.10L336.00-19.35L344.90-19.35L344.90-19.35Q344.90-16.70 343.60-15.23L343.60-15.23L343.60-15.23Q342.30-13.75 340.13-13.75L340.13-13.75L340.13-13.75Q337.95-13.75 336.60-14.25L336.60-14.25L336.60-14.25Q335.25-14.75 335.10-14.90L335.10-14.90L333.30-5.45L333.30-5.45Q334.50-5.30 336.75-5.30L336.75-5.30L336.75-5.30Q340.60-5.30 343.35-7.70Z" fill="url(#editing-shiny-gradient)"></path></g></g><g filter="url(#editing-shiny2)"><g transform="translate(76.27968138456345, 92.54999923706055)"><path d="M23.60-26.50L23.60-26.50L23.60-26.50Q19.55-26.50 16.60-27.85L16.60-27.85L15-19.75L24.65-19.75L24.65-19.75Q24.65-17.10 23.33-15.43L23.33-15.43L23.33-15.43Q22-13.75 19.60-13.75L19.60-13.75L19.60-13.75Q17-13.75 14.60-14.70L14.60-14.70L14.60-14.70Q14.10-14.90 14.05-14.95L14.05-14.95L11.20 0L0.30 0L6.65-33L28.95-33L28.95-33Q28.95-29.95 27.53-28.23L27.53-28.23L27.53-28.23Q26.10-26.50 23.60-26.50ZM37.95 0L27.25 0L33.35-32.85L33.35-32.85Q38.30-33.40 45.53-33.40L45.53-33.40L45.53-33.40Q52.75-33.40 56.10-31.30L56.10-31.30L56.10-31.30Q59.45-29.20 59.45-24.98L59.45-24.98L59.45-24.98Q59.45-20.75 57.28-18.10L57.28-18.10L57.28-18.10Q55.10-15.45 51.35-14.60L51.35-14.60L51.35-14.60Q52.20-10.45 54.15-7.10L54.15-7.10L54.15-7.10Q55.95-3.95 58.05-2.95L58.05-2.95L58.05-2.95Q57.30-0.85 55.78 0.08L55.78 0.08L55.78 0.08Q54.25 1 52.08 1L52.08 1L52.08 1Q49.90 1 48.20-0.28L48.20-0.28L48.20-0.28Q46.50-1.55 45.15-3.90L45.15-3.90L45.15-3.90Q42.30-9 42-17.05L42-17.05L42.35-17.05L42.35-17.05Q46.05-17.15 47.90-19.07L47.90-19.07L47.90-19.07Q49.75-21 49.75-25.05L49.75-25.05L49.75-25.05Q49.75-30.10 45.50-30.30L45.50-30.30L44.40-30.30L44.40-30.30Q43.95-30.30 43.70-30.25L43.70-30.25L37.95 0ZM62.70-7.40L62.70-7.40L62.70-7.40Q62.70-9.35 63.20-11.85L63.20-11.85L67.25-33L78.30-33L74.30-11.70L74.30-11.70Q73.85-9.35 73.85-7.63L73.85-7.63L73.85-7.63Q73.85-5.90 74.58-5L74.58-5L74.58-5Q75.30-4.10 76.65-4.10L76.65-4.10L76.65-4.10Q78-4.10 78.85-4.45L78.85-4.45L78.85-4.45Q79.70-4.80 80.40-5.65L80.40-5.65L80.40-5.65Q81.75-7.35 82.60-11.70L82.60-11.70L86.65-33L94.20-33L90.20-11.75L90.20-11.75Q88.80-4.65 84.95-1.80L84.95-1.80L84.95-1.80Q81.20 1 73.80 1L73.80 1L73.80 1Q68.25 1 65.30-1.40L65.30-1.40L65.30-1.40Q62.70-3.50 62.70-7.40ZM96.45-31L96.45-31L96.45-31Q97.90-34 101.93-34L101.93-34L101.93-34Q105.95-34 107.83-31.68L107.83-31.68L107.83-31.68Q109.70-29.35 109.70-24L109.70-24L109.70-6.15L121.85-32.95L127.80-32.95L112.25 0L100.55 0L99.05-24L99.05-24Q98.90-26.65 98.18-28.45L98.18-28.45L98.18-28.45Q97.45-30.25 96.45-31ZM147.15-7.70L147.15-7.70L147.15-7.70Q148.10-6.50 148.10-4.55L148.10-4.55L148.10-4.55Q148.10-1.85 146.10-0.43L146.10-0.43L146.10-0.43Q144.10 1 140.95 1L140.95 1L140.95 1Q139.15 1 136.40 0.60L136.40 0.60L136.40 0.60Q131.00-0.25 129.35-0.25L129.35-0.25L129.35-0.25Q127.70-0.25 127.05-0.18L127.05-0.18L127.05-0.18Q126.40-0.10 125.35 0L125.35 0L131.50-33L153.05-33L153.05-33Q153.05-29.95 151.58-28.35L151.58-28.35L151.58-28.35Q150.10-26.75 147.20-26.75L147.20-26.75L147.20-26.75Q144.30-26.75 141.35-28.10L141.35-28.10L139.80-19.35L148.70-19.35L148.70-19.35Q148.70-16.70 147.40-15.23L147.40-15.23L147.40-15.23Q146.10-13.75 143.93-13.75L143.93-13.75L143.93-13.75Q141.75-13.75 140.40-14.25L140.40-14.25L140.40-14.25Q139.05-14.75 138.90-14.90L138.90-14.90L137.10-5.45L137.10-5.45Q138.30-5.30 140.55-5.30L140.55-5.30L140.55-5.30Q144.40-5.30 147.15-7.70ZM162.95 0L152.25 0L158.35-32.85L158.35-32.85Q163.30-33.40 170.53-33.40L170.53-33.40L170.53-33.40Q177.75-33.40 181.10-31.30L181.10-31.30L181.10-31.30Q184.45-29.20 184.45-24.98L184.45-24.98L184.45-24.98Q184.45-20.75 182.28-18.10L182.28-18.10L182.28-18.10Q180.10-15.45 176.35-14.60L176.35-14.60L176.35-14.60Q177.20-10.45 179.15-7.10L179.15-7.10L179.15-7.10Q180.95-3.95 183.05-2.95L183.05-2.95L183.05-2.95Q182.30-0.85 180.78 0.08L180.78 0.08L180.78 0.08Q179.25 1 177.08 1L177.08 1L177.08 1Q174.90 1 173.20-0.28L173.20-0.28L173.20-0.28Q171.50-1.55 170.15-3.90L170.15-3.90L170.15-3.90Q167.30-9 167.00-17.05L167.00-17.05L167.35-17.05L167.35-17.05Q171.05-17.15 172.90-19.07L172.90-19.07L172.90-19.07Q174.75-21 174.75-25.05L174.75-25.05L174.75-25.05Q174.75-30.10 170.50-30.30L170.50-30.30L169.40-30.30L169.40-30.30Q168.95-30.30 168.70-30.25L168.70-30.25L162.95 0ZM216.55-23.10L216.55-23.10L216.55-23.10Q217.30-24.60 217.30-26L217.30-26L217.30-26Q217.30-27.40 217.15-28.18L217.15-28.18L217.15-28.18Q217.00-28.95 216.65-29.55L216.65-29.55L216.65-29.55Q215.90-30.85 214.40-30.85L214.40-30.85L214.40-30.85Q212.55-30.85 211.05-29.50L211.05-29.50L211.05-29.50Q209.45-28.10 209.45-25.90L209.45-25.90L209.45-25.90Q209.45-24.50 210.43-23.43L210.43-23.43L210.43-23.43Q211.40-22.35 212.90-21.35L212.90-21.35L212.90-21.35Q214.40-20.35 216.10-19.35L216.10-19.35L216.10-19.35Q217.80-18.35 219.30-17.15L219.30-17.15L219.30-17.15Q222.75-14.40 222.75-10.70L222.75-10.70L222.75-10.70Q222.75-8.20 221.43-6.08L221.43-6.08L221.43-6.08Q220.10-3.95 217.90-2.40L217.90-2.40L217.90-2.40Q213.10 1 206.75 1L206.75 1L206.75 1Q201.60 1 198.95-0.68L198.95-0.68L198.95-0.68Q196.30-2.35 196.30-4.90L196.30-4.90L196.30-4.90Q196.30-9.45 199.85-10.60L199.85-10.60L199.85-10.60Q200.85-10.95 202.38-10.95L202.38-10.95L202.38-10.95Q203.90-10.95 205.65-10.30L205.65-10.30L205.65-10.30Q204.85-8.25 204.85-6.40L204.85-6.40L204.85-6.40Q204.85-2.40 207.70-2.40L207.70-2.40L207.70-2.40Q209.55-2.40 211.08-3.75L211.08-3.75L211.08-3.75Q212.60-5.10 212.60-6.63L212.60-6.63L212.60-6.63Q212.60-8.15 211.63-9.25L211.63-9.25L211.63-9.25Q210.65-10.35 209.20-11.23L209.20-11.23L209.20-11.23Q207.75-12.10 206.08-12.95L206.08-12.95L206.08-12.95Q204.40-13.80 202.95-15L202.95-15L202.95-15Q199.55-17.75 199.55-22.15L199.55-22.15L199.55-22.15Q199.55-25 200.95-27.23L200.95-27.23L200.95-27.23Q202.35-29.45 204.60-30.95L204.60-30.95L204.60-30.95Q209.10-34 214.63-34L214.63-34L214.63-34Q220.15-34 222.83-32.35L222.83-32.35L222.83-32.35Q225.50-30.70 225.50-27.90L225.50-27.90L225.50-27.90Q225.50-25.45 223.60-23.90L223.60-23.90L223.60-23.90Q221.95-22.60 219.95-22.60L219.95-22.60L219.95-22.60Q217.95-22.60 216.55-23.10ZM230.55-24.35L230.55-24.35L230.55-24.35Q228.85-25.65 228.85-28.43L228.85-28.43L228.85-28.43Q228.85-31.20 230.68-32.65L230.68-32.65L230.68-32.65Q232.50-34.10 235.65-34.10L235.65-34.10L235.65-34.10Q237.65-34.10 242.40-33.40L242.40-33.40L245.80-32.90L245.80-32.90Q247.50-32.70 249.28-32.70L249.28-32.70L249.28-32.70Q251.05-32.70 252.25-33.45L252.25-33.45L252.25-33.45Q254.05-31.85 254.05-29.55L254.05-29.55L254.05-29.55Q254.05-27.25 252.00-25.60L252.00-25.60L252.00-25.60Q249.90-23.85 247.20-23.85L247.20-23.85L247.20-23.85Q245.90-23.85 243.80-24.20L243.80-24.20L243.80-24.20Q241.35-16.50 241.35-11.15L241.35-11.15L241.35-11.15Q241.35-5.80 244.05-3L244.05-3L244.05-3Q242.80-0.75 240.95 0.13L240.95 0.13L240.95 0.13Q239.10 1 236.33 1L236.33 1L236.33 1Q233.55 1 231.83-0.53L231.83-0.53L231.83-0.53Q230.10-2.05 230.10-5.20L230.10-5.20L230.10-5.20Q230.10-8.85 232.10-14.85L232.10-14.85L232.10-14.85Q234.10-20.80 237.10-25.35L237.10-25.35L237.10-25.35Q235.65-25.50 234.15-25.50L234.15-25.50L234.15-25.50Q231.05-25.50 230.55-24.35ZM253.20-12.20L253.20-12.20L253.20-12.20Q253.20-21.65 258.10-27.60L258.10-27.60L258.10-27.60Q263.30-34.05 272.35-34.05L272.35-34.05L272.35-34.05Q278.90-34.05 282.20-30.88L282.20-30.88L282.20-30.88Q285.50-27.70 285.50-21L285.50-21L285.50-21Q285.50-10.80 280.30-4.85L280.30-4.85L280.30-4.85Q275.15 1 266.50 1L266.50 1L266.50 1Q259.75 1 256.48-2.38L256.48-2.38L256.48-2.38Q253.20-5.75 253.20-12.20ZM266.35-22.55L266.35-22.55L266.35-22.55Q264.10-13.55 264.10-6.45L264.10-6.45L264.10-6.45Q264.10-4.75 264.68-3.65L264.68-3.65L264.68-3.65Q265.25-2.55 266.78-2.55L266.78-2.55L266.78-2.55Q268.30-2.55 269.25-3.28L269.25-3.28L269.25-3.28Q270.20-4 270.95-5.65L270.95-5.65L270.95-5.65Q272.15-8.35 273.28-14.08L273.28-14.08L273.28-14.08Q274.40-19.80 274.50-22.18L274.50-22.18L274.50-22.18Q274.60-24.55 274.60-26.35L274.60-26.35L274.60-26.35Q274.60-28.15 274.05-29.30L274.05-29.30L274.05-29.30Q273.50-30.45 272.03-30.45L272.03-30.45L272.03-30.45Q270.55-30.45 269.55-29.55L269.55-29.55L269.55-29.55Q267.70-27.85 266.35-22.55ZM298.20 0L287.50 0L293.60-32.85L293.60-32.85Q298.55-33.40 305.78-33.40L305.78-33.40L305.78-33.40Q313-33.40 316.35-31.30L316.35-31.30L316.35-31.30Q319.70-29.20 319.70-24.98L319.70-24.98L319.70-24.98Q319.70-20.75 317.53-18.10L317.53-18.10L317.53-18.10Q315.35-15.45 311.60-14.60L311.60-14.60L311.60-14.60Q312.45-10.45 314.40-7.10L314.40-7.10L314.40-7.10Q316.20-3.95 318.30-2.95L318.30-2.95L318.30-2.95Q317.55-0.85 316.03 0.08L316.03 0.08L316.03 0.08Q314.50 1 312.33 1L312.33 1L312.33 1Q310.15 1 308.45-0.28L308.45-0.28L308.45-0.28Q306.75-1.55 305.40-3.90L305.40-3.90L305.40-3.90Q302.55-9 302.25-17.05L302.25-17.05L302.60-17.05L302.60-17.05Q306.30-17.15 308.15-19.07L308.15-19.07L308.15-19.07Q310-21 310-25.05L310-25.05L310-25.05Q310-30.10 305.75-30.30L305.75-30.30L304.65-30.30L304.65-30.30Q304.20-30.30 303.95-30.25L303.95-30.25L298.20 0ZM343.35-7.70L343.35-7.70L343.35-7.70Q344.30-6.50 344.30-4.55L344.30-4.55L344.30-4.55Q344.30-1.85 342.30-0.43L342.30-0.43L342.30-0.43Q340.30 1 337.15 1L337.15 1L337.15 1Q335.35 1 332.60 0.60L332.60 0.60L332.60 0.60Q327.20-0.25 325.55-0.25L325.55-0.25L325.55-0.25Q323.90-0.25 323.25-0.18L323.25-0.18L323.25-0.18Q322.60-0.10 321.55 0L321.55 0L327.70-33L349.25-33L349.25-33Q349.25-29.95 347.78-28.35L347.78-28.35L347.78-28.35Q346.30-26.75 343.40-26.75L343.40-26.75L343.40-26.75Q340.50-26.75 337.55-28.10L337.55-28.10L336.00-19.35L344.90-19.35L344.90-19.35Q344.90-16.70 343.60-15.23L343.60-15.23L343.60-15.23Q342.30-13.75 340.13-13.75L340.13-13.75L340.13-13.75Q337.95-13.75 336.60-14.25L336.60-14.25L336.60-14.25Q335.25-14.75 335.10-14.90L335.10-14.90L333.30-5.45L333.30-5.45Q334.50-5.30 336.75-5.30L336.75-5.30L336.75-5.30Q340.60-5.30 343.35-7.70Z" fill="url(#editing-shiny-gradient2)"></path></g></g><style>text {
  font-size: 64px;
  font-family: Arial Black;
  dominant-baseline: central;
  text-anchor: middle;
}</style></svg>